# xmcd
#
# Track frame offsets: 
#        150
#        14170
#        22970
#        34312
#        47162
#        58045
#        78112
#        91882
#        102687
#        117037
#        130275
#        143552
#        154795
#        164575
#        176800
#        189995
#        204737
#        216887
#        230937
#        245020
#        258912
#        271825
#        284325
#
# Disc length: 3936 seconds
#
# Revision: 0
# Processed by: cddbd v1.4PL0 Copyright (c) Steve Scherf et al.
# Submitted via: ExactAudioCopy v0.90a11
#
DISCID=540f5e17
DTITLE=Carrroll Baker - From The Beginning
DYEAR=1900
DGENRE=
TTITLE0=Mem'ries Of Home
TTITLE1=A Hit In Any Language
TTITLE2=The Day Of The Bride And Groom
TTITLE3=That's How My Heart Beats For You
TTITLE4=Wichita
TTITLE5=I've Never Been This Far Before
TTITLE6=Ten Little Fingers
TTITLE7=Little Boy Blue
TTITLE8=The Hungry Fire Of Love
TTITLE9=All Them Irons In The Fire
TTITLE10=Picture In My Mind
TTITLE11=Why I Had To Pass This Way
TTITLE12=Gone, Gone, Gone Travellin' Man
TTITLE13=Why Me Lord
TTITLE14=One Night Of Cheatin'
TTITLE15=One is One Too Many
TTITLE16=Cryin' Places
TTITLE17=I'd Go Through It All Again
TTITLE18=Tonight With Love
TTITLE19=The Need In Me
TTITLE20=(Maybe) I'll Get Over You Someday
TTITLE21=Like You Touched Me
TTITLE22=God's Gift to Me
EXTD=
EXTT0=
EXTT1=
EXTT2=
EXTT3=
EXTT4=
EXTT5=
EXTT6=
EXTT7=
EXTT8=
EXTT9=
EXTT10=
EXTT11=
EXTT12=
EXTT13=
EXTT14=
EXTT15=
EXTT16=
EXTT17=
EXTT18=
EXTT19=
EXTT20=
EXTT21=
EXTT22=
PLAYORDER=
